<?xml version="1.0" encoding="utf-8"?>
<!-- Generated by Mocodo 4.2.11 -->
<svg width="553" height="432" viewBox="0 0 553 432" xmlns="http://www.w3.org/2000/svg">
<rect x="0" y="0" width="553" height="432" fill="#ffffbf" stroke="none" stroke-width="0"/>

<!-- Inheritance MEMBRE_PARENT_#1 -->
<g>
	<line x1="491" y1="203" x2="384" y2="203" stroke="#74add1" stroke-width="2"/>
	<polygon points="438 203 426 209 430 203 426 197" fill="#74add1" stroke-width="0"/>
	<line x1="257" y1="203" x2="384" y2="203" stroke="#74add1" stroke-width="2"/>
	<line x1="384" y1="338" x2="384" y2="203" stroke="#74add1" stroke-width="2"/>
	<g>
		<polygon points="384 177.6 362 215.7 406 215.7" stroke="#74add1" stroke-width="2" fill="#abd9e9"/>
		<text x="376" y="208" fill="#000000" font-family="Verdana" font-size="12">XT</text>
	</g>
</g>

<!-- Association PAYE -->
<g>
	<line x1="257" y1="203" x2="257" y2="60" stroke="#74add1" stroke-width="2"/>
	<line x1="384" y1="60" x2="257" y2="60" stroke="#74add1" stroke-width="2"/>
	<g>
		<path d="M303 26 a14 14 90 0 1 14 14 V51 h-120 V40 a14 14 90 0 1 14 -14" fill="#abd9e9" stroke="#abd9e9" stroke-width="0"/>
		<path d="M317 51 v29 a14 14 90 0 1 -14 14 H211 a14 14 90 0 1 -14 -14 V51 H120" fill="#e0f3f8" stroke="#e0f3f8" stroke-width="0"/>
		<rect x="197" y="26" width="120" height="68" fill="none" rx="14" stroke="#74add1" stroke-width="2"/>
		<line x1="197" y1="51" x2="317" y2="51" stroke="#74add1" stroke-width="1"/>
		<text x="242" y="43.75" fill="#000000" font-family="Verdana" font-size="12">PAYE</text>
		<text x="204" y="68.8" fill="#000000" font-family="Verdana" font-size="12">cotisation_Annee</text>
		<text x="204" y="85.8" fill="#000000" font-family="Verdana" font-size="12">payee_Cotisation</text>
	</g>
	<text x="262" y="161" fill="#d73027" font-family="Verdana" font-size="12">1,1</text>
	<text x="324" y="77" fill="#d73027" font-family="Verdana" font-size="12">0,N</text>
</g>

<!-- Association RESERVATION -->
<g>
	<line x1="257" y1="203" x2="87" y2="203" stroke="#74add1" stroke-width="2"/>
	<line x1="87" y1="60" x2="87" y2="203" stroke="#74add1" stroke-width="2"/>
	<line x1="87" y1="338" x2="87" y2="203" stroke="#74add1" stroke-width="2"/>
	<g>
		<path d="M124 178 a14 14 90 0 1 14 14 V203 h-102 V192 a14 14 90 0 1 14 -14" fill="#abd9e9" stroke="#abd9e9" stroke-width="0"/>
		<path d="M138 203 v11 a14 14 90 0 1 -14 14 H50 a14 14 90 0 1 -14 -14 V203 H102" fill="#e0f3f8" stroke="#e0f3f8" stroke-width="0"/>
		<rect x="36" y="178" width="102" height="50" fill="none" rx="14" stroke="#74add1" stroke-width="2"/>
		<line x1="36" y1="203" x2="138" y2="203" stroke="#74add1" stroke-width="1"/>
		<text x="43" y="195.75" fill="#000000" font-family="Verdana" font-size="12">RESERVATION</text>
		<text x="43" y="220.8" fill="#000000" font-family="Verdana" font-size="12">cours_Payee</text>
	</g>
	<text x="191" y="220" fill="#d73027" font-family="Verdana" font-size="12">0,N</text>
	<text x="92" y="128" fill="#d73027" font-family="Verdana" font-size="12">0,N</text>
	<text x="92" y="245" fill="#d73027" font-family="Verdana" font-size="12">0,N</text>
</g>

<!-- Association DONNER -->
<g>
	<line x1="87" y1="338" x2="257" y2="338" stroke="#74add1" stroke-width="2"/>
	<line x1="384" y1="338" x2="257" y2="338" stroke="#74add1" stroke-width="2"/>
	<g>
		<path d="M277 313 a14 14 90 0 1 14 14 V338 h-68 V327 a14 14 90 0 1 14 -14" fill="#abd9e9" stroke="#abd9e9" stroke-width="0"/>
		<path d="M291 338 v11 a14 14 90 0 1 -14 14 H237 a14 14 90 0 1 -14 -14 V338 H68" fill="#e0f3f8" stroke="#e0f3f8" stroke-width="0"/>
		<rect x="223" y="313" width="68" height="50" fill="none" rx="14" stroke="#74add1" stroke-width="2"/>
		<line x1="223" y1="338" x2="291" y2="338" stroke="#74add1" stroke-width="1"/>
		<text x="230" y="330.75" fill="#000000" font-family="Verdana" font-size="12">DONNER</text>
	</g>
	<text x="160" y="355" fill="#d73027" font-family="Verdana" font-size="12">1,1</text>
	<text x="296" y="355" fill="#d73027" font-family="Verdana" font-size="12">1,N</text>
</g>

<!-- Entity PONEY -->
<g>
	<g>
		<rect x="9" y="9" width="156" height="25" fill="#fdae61" stroke="none" stroke-width="0" opacity="1"/>
		<rect x="9" y="34" width="156" height="77" fill="#fee090" stroke="none" stroke-width="0" opacity="1"/>
		<rect x="9" y="9" width="156" height="102" fill="none" stroke="#f46d43" stroke-width="2" opacity="1"/>
		<line x1="9" y1="34" x2="165" y2="34" stroke="#f46d43" stroke-width="1"/>
	</g>
	<text x="66" y="26.75" fill="#000000" font-family="Verdana" font-size="12">PONEY</text>
	<text x="14" y="51.8" fill="#000000" font-family="Verdana" font-size="12">poney_ID</text>
	<line x1="14" y1="54" x2="74" y2="54" stroke="#000000" stroke-width="1"/>
	<text x="14" y="68.8" fill="#000000" font-family="Verdana" font-size="12">nom_P</text>
	<text x="14" y="85.8" fill="#000000" font-family="Verdana" font-size="12">age</text>
	<text x="14" y="102.8" fill="#000000" font-family="Verdana" font-size="12">poids_Supportable_Max</text>
</g>

<!-- Entity TARIF -->
<g>
	<g>
		<rect x="351" y="18" width="66" height="25" fill="#fdae61" stroke="none" stroke-width="0" opacity="1"/>
		<rect x="351" y="43" width="66" height="59" fill="#fee090" stroke="none" stroke-width="0" opacity="1"/>
		<rect x="351" y="18" width="66" height="84" fill="none" stroke="#f46d43" stroke-width="2" opacity="1"/>
		<line x1="351" y1="43" x2="417" y2="43" stroke="#f46d43" stroke-width="1"/>
	</g>
	<text x="366" y="35.75" fill="#000000" font-family="Verdana" font-size="12">TARIF</text>
	<text x="356" y="60.8" fill="#000000" font-family="Verdana" font-size="12">id_T</text>
	<line x1="356" y1="63" x2="383" y2="63" stroke="#000000" stroke-width="1"/>
	<text x="356" y="77.8" fill="#000000" font-family="Verdana" font-size="12">descriptif</text>
	<text x="356" y="94.8" fill="#000000" font-family="Verdana" font-size="12">montant</text>
</g>

<!-- Entity ADHERENT -->
<g>
	<g>
		<rect x="218" y="169" width="78" height="25" fill="#fdae61" stroke="none" stroke-width="0" opacity="1"/>
		<rect x="218" y="194" width="78" height="43" fill="#fee090" stroke="none" stroke-width="0" opacity="1"/>
		<rect x="218" y="169" width="78" height="68" fill="none" stroke="#f46d43" stroke-width="2" opacity="1"/>
		<line x1="218" y1="194" x2="296" y2="194" stroke="#f46d43" stroke-width="1"/>
	</g>
	<text x="224" y="186.75" fill="#000000" font-family="Verdana" font-size="12">ADHERENT</text>
	<text x="223" y="211.8" fill="#000000" font-family="Verdana" font-size="12">poids_A</text>
	<text x="223" y="228.8" fill="#000000" font-family="Verdana" font-size="12">niveau</text>
</g>

<!-- Entity MEMBRE -->
<g>
	<g>
		<rect x="438" y="127" width="106" height="25" fill="#fdae61" stroke="none" stroke-width="0" opacity="1"/>
		<rect x="438" y="152" width="106" height="127" fill="#fee090" stroke="none" stroke-width="0" opacity="1"/>
		<rect x="438" y="127" width="106" height="152" fill="none" stroke="#f46d43" stroke-width="2" opacity="1"/>
		<line x1="438" y1="152" x2="544" y2="152" stroke="#f46d43" stroke-width="1"/>
	</g>
	<text x="465" y="144.75" fill="#000000" font-family="Verdana" font-size="12">MEMBRE</text>
	<text x="443" y="169.8" fill="#000000" font-family="Verdana" font-size="12">id_M</text>
	<line x1="443" y1="172" x2="473" y2="172" stroke="#000000" stroke-width="1"/>
	<text x="443" y="186.8" fill="#000000" font-family="Verdana" font-size="12">nom_M</text>
	<text x="443" y="203.8" fill="#000000" font-family="Verdana" font-size="12">prenom_M</text>
	<text x="443" y="220.8" fill="#000000" font-family="Verdana" font-size="12">date_Naissance</text>
	<text x="443" y="237.8" fill="#000000" font-family="Verdana" font-size="12">email</text>
	<text x="443" y="254.8" fill="#000000" font-family="Verdana" font-size="12">mot_De_Passe</text>
	<text x="443" y="271.8" fill="#000000" font-family="Verdana" font-size="12">telephone</text>
</g>

<!-- Entity COURS -->
<g>
	<g>
		<rect x="19" y="253" width="136" height="25" fill="#fdae61" stroke="none" stroke-width="0" opacity="1"/>
		<rect x="19" y="278" width="136" height="145" fill="#fee090" stroke="none" stroke-width="0" opacity="1"/>
		<rect x="19" y="253" width="136" height="170" fill="none" stroke="#f46d43" stroke-width="2" opacity="1"/>
		<line x1="19" y1="278" x2="155" y2="278" stroke="#f46d43" stroke-width="1"/>
	</g>
	<text x="65" y="270.75" fill="#000000" font-family="Verdana" font-size="12">COURS</text>
	<text x="24" y="295.8" fill="#000000" font-family="Verdana" font-size="12">cours_ID</text>
	<line x1="24" y1="298" x2="79" y2="298" stroke="#000000" stroke-width="1"/>
	<text x="24" y="312.8" fill="#000000" font-family="Verdana" font-size="12">type_C</text>
	<text x="24" y="329.8" fill="#000000" font-family="Verdana" font-size="12">duree</text>
	<text x="24" y="346.8" fill="#000000" font-family="Verdana" font-size="12">nb_Participants_Max</text>
	<text x="24" y="363.8" fill="#000000" font-family="Verdana" font-size="12">jour</text>
	<text x="24" y="380.8" fill="#000000" font-family="Verdana" font-size="12">heure_D</text>
	<text x="24" y="397.8" fill="#000000" font-family="Verdana" font-size="12">heure_F</text>
	<text x="24" y="414.8" fill="#000000" font-family="Verdana" font-size="12">prix</text>
</g>

<!-- Entity MONITEUR -->
<g>
	<g>
		<rect x="323" y="313" width="122" height="25" fill="#fdae61" stroke="none" stroke-width="0" opacity="1"/>
		<rect x="323" y="338" width="122" height="25" fill="#fee090" stroke="none" stroke-width="0" opacity="1"/>
		<rect x="323" y="313" width="122" height="50" fill="none" stroke="#f46d43" stroke-width="2" opacity="1"/>
		<line x1="323" y1="338" x2="445" y2="338" stroke="#f46d43" stroke-width="1"/>
	</g>
	<text x="351" y="330.75" fill="#000000" font-family="Verdana" font-size="12">MONITEUR</text>
	<text x="328" y="355.8" fill="#000000" font-family="Verdana" font-size="12">annee_Experience</text>
</g>
</svg>